<svg width="512" height="512" viewBox="0 0 512 512" fill="none" xmlns="http://www.w3.org/2000/svg">
  <rect width="512" height="512" rx="96" fill="url(#bg)"/>

  <!-- Billete -->
  <g transform="translate(72 260) rotate(-8)">
    <rect x="0" y="0" width="368" height="116" rx="18" fill="#1f2937" stroke="#3b82f6" stroke-width="6"/>
    <rect x="22" y="24" width="86" height="68" rx="12" fill="#0d1117" stroke="#34d399" stroke-width="4"/>
    <text x="130" y="76" font-family="Arial, Helvetica, sans-serif" font-size="54" font-weight="800" fill="#34d399">€</text>
    <text x="188" y="78" font-family="Arial, Helvetica, sans-serif" font-size="58" font-weight="900" fill="#60a5fa">500</text>
    <circle cx="330" cy="58" r="22" fill="#8b5cf6" opacity="0.85"/>
  </g>

  <!-- Hormiga -->
  <g transform="translate(120 130)">
    <!-- cuerpo -->
    <ellipse cx="82" cy="88" rx="46" ry="38" fill="#06070a" stroke="#3b82f6" stroke-width="8"/>
    <ellipse cx="154" cy="78" rx="42" ry="36" fill="#0a0d12" stroke="#3b82f6" stroke-width="8"/>
    <ellipse cx="224" cy="64" rx="38" ry="34" fill="#06070a" stroke="#3b82f6" stroke-width="8"/>

    <!-- brillo -->
    <ellipse cx="235" cy="51" rx="16" ry="8" fill="#e0f2fe" opacity="0.9"/>
    <ellipse cx="92" cy="72" rx="14" ry="7" fill="#60a5fa" opacity="0.45"/>

    <!-- patas -->
    <path d="M82 120 C58 148 42 172 24 204" stroke="#111823" stroke-width="12" stroke-linecap="round"/>
    <path d="M114 120 C104 154 96 180 86 214" stroke="#111823" stroke-width="12" stroke-linecap="round"/>
    <path d="M156 112 C154 150 154 178 154 214" stroke="#111823" stroke-width="12" stroke-linecap="round"/>
    <path d="M184 108 C198 142 210 170 230 204" stroke="#111823" stroke-width="12" stroke-linecap="round"/>
    <path d="M222 94 C250 124 272 148 298 176" stroke="#111823" stroke-width="12" stroke-linecap="round"/>
    <path d="M238 84 C276 94 302 108 330 130" stroke="#111823" stroke-width="12" stroke-linecap="round"/>

    <!-- antenas -->
    <path d="M246 36 C278 0 316 -4 350 10" stroke="#60a5fa" stroke-width="8" stroke-linecap="round"/>
    <path d="M238 34 C256 -6 286 -24 322 -28" stroke="#60a5fa" stroke-width="8" stroke-linecap="round"/>
  </g>

  <!-- monograma -->
  <text x="256" y="438" text-anchor="middle" font-family="Arial, Helvetica, sans-serif" font-size="62" font-weight="900" fill="#3b82f6">
    control<tspan fill="#34d399">Ants</tspan>
  </text>

  <defs>
    <linearGradient id="bg" x1="0" y1="0" x2="512" y2="512" gradientUnits="userSpaceOnUse">
      <stop stop-color="#0a0d12"/>
      <stop offset="1" stop-color="#06070a"/>
    </linearGradient>
  </defs>
</svg>